<?xml version="1.0" encoding="utf-8"?>
<!-- Generator: Adobe Illustrator 15.1.0, SVG Export Plug-In . SVG Version: 6.00 Build 0)  -->
<!DOCTYPE svg PUBLIC "-//W3C//DTD SVG 1.1//EN" "http://www.w3.org/Graphics/SVG/1.1/DTD/svg11.dtd">
<svg version="1.1" id="Ebene_1" xmlns="http://www.w3.org/2000/svg" xmlns:xlink="http://www.w3.org/1999/xlink" x="0px" y="0px"
	 width="100px" height="100px" viewBox="0 0 100 100" enable-background="new 0 0 100 100" xml:space="preserve">
<g>
	<path fill="#1A171B" d="M56.246,39.053c0.884,0,1.601-0.716,1.601-1.6c0-0.885-0.717-1.601-1.601-1.601s-1.601,0.716-1.601,1.601
		C54.646,38.337,55.362,39.053,56.246,39.053"/>
	<path fill="#1A171B" d="M43.754,39.053c0.884,0,1.601-0.716,1.601-1.6c0-0.885-0.717-1.601-1.601-1.601s-1.601,0.716-1.601,1.601
		C42.153,38.337,42.87,39.053,43.754,39.053"/>
	<path fill="#1A171B" d="M55.036,21.373h-0.192c-0.192-1.19-1.133-1.889-2.605-1.889h-4.478c-1.578,0-2.45,0.645-2.611,1.907h-0.188
		c-2.001,0.003-5.784,1.219-5.784,5.794v9.15c0,2.001,1.209,5.787,5.784,5.795l0.664,0.001l-3.601,4.925
		c-0.261,0.356-0.184,0.856,0.173,1.116c0.143,0.104,0.308,0.154,0.471,0.154c0.246,0,0.489-0.113,0.646-0.327l0.046-0.062h13.281
		L56.687,48c0.156,0.214,0.398,0.327,0.646,0.327c0.163,0,0.328-0.05,0.471-0.154c0.356-0.26,0.434-0.76,0.173-1.116l-3.59-4.909
		l0.652,0.001c0.06,0,1.467-0.008,2.866-0.711c1.332-0.668,2.919-2.09,2.919-5.065V27.15C60.823,25.152,59.616,21.373,55.036,21.373
		z M47.761,21.021h4.478c1.023,0,1.109,0.424,1.109,0.82c0,0.445,0,0.867-1.109,0.867h-4.478c-1.108,0-1.108-0.273-1.108-0.873
		C46.652,21.328,46.652,21.021,47.761,21.021z M55.473,46.34H44.527l0.91-1.245h9.125L55.473,46.34z M53.395,43.497h-6.789
		l0.996-1.361l4.803,0.008L53.395,43.497z M59.226,36.372c0,4.038-3.756,4.176-4.188,4.179l-10.074-0.018
		c-4.042-0.007-4.186-3.771-4.188-4.197v-9.15c0-4.042,3.763-4.192,4.189-4.196l0.343-0.001c0.266,0.636,0.905,1.258,2.454,1.258
		h4.478c1.229,0,2.052-0.448,2.421-1.274l0.392-0.001c4.028,0,4.172,3.755,4.175,4.18V36.372z"/>
	<path fill="#1A171B" d="M55.277,34.176l-10.555-0.01c-1.948-0.002-2.655-1.59-2.655-2.657v-4.578c0-1.297,1.057-1.769,1.767-1.769
		l11.442-0.011c1.95,0,2.656,1.587,2.656,2.653v3.718C57.933,33.47,56.345,34.176,55.277,34.176z M55.28,26.687l-11.444,0.011
		c-0.233,0.012-0.233,0.119-0.233,0.233v4.578c0.007,0.332,0.13,1.121,1.122,1.122l10.549,0.01c0.34-0.007,1.124-0.131,1.124-1.118
		v-3.718C56.391,27.474,56.269,26.687,55.28,26.687z"/>
</g>
<g>
	<path d="M39.562,69.187l-3.638-10.897h1.395l0.255,1.105l2.771,8.415h0.103l3.06-8.347l0.272-1.174h1.359l-3.995,10.897H39.562z"/>
	<path d="M50.269,69.187l-3.638-10.897h1.395l0.255,1.105l2.771,8.415h0.103l3.06-8.347l0.272-1.174h1.359L51.85,69.187H50.269z"/>
	<path d="M63.753,58.715l-0.221,1.309l-0.238,0.068c-0.68-0.521-1.394-0.782-2.142-0.782c-0.42,0-0.785,0.085-1.097,0.255
		s-0.55,0.391-0.714,0.663s-0.247,0.556-0.247,0.85c0,0.307,0.094,0.576,0.281,0.808c0.187,0.232,0.422,0.434,0.705,0.604
		s0.669,0.374,1.156,0.612c0.612,0.283,1.104,0.547,1.479,0.79c0.374,0.244,0.694,0.553,0.961,0.927
		c0.266,0.374,0.399,0.827,0.399,1.36c0,0.566-0.153,1.088-0.459,1.563c-0.306,0.477-0.737,0.856-1.292,1.14
		c-0.556,0.283-1.19,0.425-1.904,0.425c-1.043,0-2.018-0.255-2.924-0.766l0.17-1.394l0.188-0.085
		c0.396,0.386,0.835,0.672,1.317,0.858c0.481,0.188,0.943,0.28,1.386,0.28c0.43,0,0.812-0.085,1.147-0.255
		c0.334-0.17,0.589-0.396,0.765-0.68s0.264-0.584,0.264-0.901c0-0.476-0.182-0.858-0.544-1.147
		c-0.363-0.289-0.913-0.604-1.649-0.943c-0.601-0.295-1.082-0.558-1.445-0.79c-0.362-0.232-0.674-0.533-0.935-0.901
		s-0.391-0.818-0.391-1.352c0-0.555,0.149-1.065,0.45-1.53c0.3-0.464,0.72-0.83,1.258-1.096c0.538-0.267,1.153-0.4,1.845-0.4
		C62.104,58.204,62.914,58.375,63.753,58.715z"/>
</g>
</svg>
